<svg xmlns="http://www.w3.org/2000/svg" viewBox="0 0 512 512" width="512" height="512">
  <defs>
    <linearGradient id="bgGrad" x1="0%" y1="0%" x2="100%" y2="100%">
      <stop offset="0%" stop-color="#1E1B4B" />
      <stop offset="50%" stop-color="#312E81" />
      <stop offset="100%" stop-color="#4338CA" />
    </linearGradient>
    <linearGradient id="amberGrad" x1="0%" y1="0%" x2="100%" y2="100%">
      <stop offset="0%" stop-color="#F59E0B" />
      <stop offset="100%" stop-color="#EA580C" />
    </linearGradient>
  </defs>
  <rect width="512" height="512" rx="112" fill="url(#bgGrad)" />
  <path d="M112 164C112 146.327 126.327 132 144 132H224L256 164H368C385.673 164 400 178.327 400 196V348C400 365.673 385.673 380 368 380H144C126.327 380 112 365.673 112 348V164Z" fill="url(#amberGrad)" />
  <rect x="148" y="212" width="216" height="22" rx="8" fill="#FFFFFF" opacity="0.95" />
  <rect x="148" y="256" width="160" height="22" rx="8" fill="#FFFFFF" opacity="0.8" />
  <rect x="148" y="300" width="190" height="22" rx="8" fill="#FFFFFF" opacity="0.8" />
  <circle cx="348" cy="296" r="32" fill="#10B981" />
  <path d="M334 296L344 306L364 286" stroke="#FFFFFF" stroke-width="8" stroke-linecap="round" stroke-linejoin="round" fill="none" />
</svg>
